<mxfile host="app.diagrams.net" modified="2024-03-18T06:05:30.028Z" agent="Mozilla/5.0 (Macintosh; Intel Mac OS X 10_15_7) AppleWebKit/537.36 (KHTML, like Gecko) Chrome/122.0.0.0 Safari/537.36" etag="GBs8CGChi33n7gpx5p4P" version="24.0.7" type="github">
  <diagram name="第 1 页" id="SUmOYy7VtTRGcbhbjFOq">
    <mxGraphModel dx="1434" dy="761" grid="0" gridSize="10" guides="1" tooltips="1" connect="1" arrows="1" fold="1" page="1" pageScale="1" pageWidth="827" pageHeight="1169" math="0" shadow="0">
      <root>
        <mxCell id="0" />
        <mxCell id="1" parent="0" />
        <mxCell id="boK0VUZgdgZWPOv1TJlZ-249" value="" style="rounded=0;whiteSpace=wrap;html=1;dashed=1;" vertex="1" parent="1">
          <mxGeometry x="464.5" y="1383" width="135.5" height="250" as="geometry" />
        </mxCell>
        <mxCell id="boK0VUZgdgZWPOv1TJlZ-127" value="" style="rounded=0;whiteSpace=wrap;html=1;" vertex="1" parent="1">
          <mxGeometry x="292.5" y="657" width="249" height="246" as="geometry" />
        </mxCell>
        <mxCell id="boK0VUZgdgZWPOv1TJlZ-16" value="" style="rounded=0;whiteSpace=wrap;html=1;dashed=1;" vertex="1" parent="1">
          <mxGeometry x="59" y="279" width="280.5" height="350" as="geometry" />
        </mxCell>
        <mxCell id="boK0VUZgdgZWPOv1TJlZ-1" value="&lt;font style=&quot;font-size: 14px;&quot;&gt;taishan proxy&lt;/font&gt;" style="rounded=0;whiteSpace=wrap;html=1;fillColor=#cdeb8b;strokeColor=#36393d;strokeWidth=3;" vertex="1" parent="1">
          <mxGeometry x="220" y="367" width="100" height="35" as="geometry" />
        </mxCell>
        <mxCell id="boK0VUZgdgZWPOv1TJlZ-74" style="edgeStyle=orthogonalEdgeStyle;rounded=0;orthogonalLoop=1;jettySize=auto;html=1;exitX=0.5;exitY=1;exitDx=0;exitDy=0;entryX=0.5;entryY=0;entryDx=0;entryDy=0;" edge="1" parent="1" source="boK0VUZgdgZWPOv1TJlZ-6" target="boK0VUZgdgZWPOv1TJlZ-1">
          <mxGeometry relative="1" as="geometry" />
        </mxCell>
        <mxCell id="boK0VUZgdgZWPOv1TJlZ-6" value="&lt;font style=&quot;font-size: 14px;&quot;&gt;业务应&lt;/font&gt;用" style="rounded=0;whiteSpace=wrap;html=1;fillColor=#cce5ff;strokeColor=#36393d;" vertex="1" parent="1">
          <mxGeometry x="220" y="300" width="100" height="33" as="geometry" />
        </mxCell>
        <mxCell id="boK0VUZgdgZWPOv1TJlZ-21" value="&lt;span style=&quot;font-weight: normal;&quot;&gt;&lt;font style=&quot;font-size: 18px;&quot;&gt;sh001机房&lt;/font&gt;&lt;/span&gt;" style="text;strokeColor=none;fillColor=none;html=1;fontSize=24;fontStyle=1;verticalAlign=middle;align=center;" vertex="1" parent="1">
          <mxGeometry x="59" y="239" width="100" height="40" as="geometry" />
        </mxCell>
        <mxCell id="boK0VUZgdgZWPOv1TJlZ-96" style="edgeStyle=orthogonalEdgeStyle;rounded=0;orthogonalLoop=1;jettySize=auto;html=1;exitX=0;exitY=0.5;exitDx=0;exitDy=0;entryX=1;entryY=0.5;entryDx=0;entryDy=0;" edge="1" parent="1" source="boK0VUZgdgZWPOv1TJlZ-66" target="boK0VUZgdgZWPOv1TJlZ-95">
          <mxGeometry relative="1" as="geometry" />
        </mxCell>
        <mxCell id="boK0VUZgdgZWPOv1TJlZ-66" value="&lt;font style=&quot;font-size: 14px;&quot;&gt;taishan-learner&lt;/font&gt;" style="rounded=0;whiteSpace=wrap;html=1;fillColor=#cdeb8b;strokeColor=#36393d;" vertex="1" parent="1">
          <mxGeometry x="220" y="579" width="100" height="35" as="geometry" />
        </mxCell>
        <mxCell id="boK0VUZgdgZWPOv1TJlZ-67" value="" style="rounded=0;whiteSpace=wrap;html=1;dashed=1;" vertex="1" parent="1">
          <mxGeometry x="476" y="279" width="281" height="350" as="geometry" />
        </mxCell>
        <mxCell id="boK0VUZgdgZWPOv1TJlZ-68" value="&lt;font style=&quot;font-size: 14px;&quot;&gt;taishan proxy&lt;/font&gt;" style="rounded=0;whiteSpace=wrap;html=1;fillColor=#cdeb8b;strokeColor=#36393d;strokeWidth=3;" vertex="1" parent="1">
          <mxGeometry x="494.5" y="367" width="100" height="35" as="geometry" />
        </mxCell>
        <mxCell id="boK0VUZgdgZWPOv1TJlZ-75" style="edgeStyle=orthogonalEdgeStyle;rounded=0;orthogonalLoop=1;jettySize=auto;html=1;exitX=0.5;exitY=1;exitDx=0;exitDy=0;entryX=0.5;entryY=0;entryDx=0;entryDy=0;" edge="1" parent="1" source="boK0VUZgdgZWPOv1TJlZ-69" target="boK0VUZgdgZWPOv1TJlZ-68">
          <mxGeometry relative="1" as="geometry" />
        </mxCell>
        <mxCell id="boK0VUZgdgZWPOv1TJlZ-69" value="&lt;font style=&quot;font-size: 14px;&quot;&gt;业务应&lt;/font&gt;用" style="rounded=0;whiteSpace=wrap;html=1;fillColor=#cce5ff;strokeColor=#36393d;" vertex="1" parent="1">
          <mxGeometry x="495.5" y="300" width="100" height="33" as="geometry" />
        </mxCell>
        <mxCell id="boK0VUZgdgZWPOv1TJlZ-70" value="&lt;span style=&quot;font-weight: normal;&quot;&gt;&lt;font style=&quot;font-size: 18px;&quot;&gt;sh004机房&lt;/font&gt;&lt;/span&gt;" style="text;strokeColor=none;fillColor=none;html=1;fontSize=24;fontStyle=1;verticalAlign=middle;align=center;" vertex="1" parent="1">
          <mxGeometry x="657" y="239" width="100" height="40" as="geometry" />
        </mxCell>
        <mxCell id="boK0VUZgdgZWPOv1TJlZ-98" style="edgeStyle=orthogonalEdgeStyle;rounded=0;orthogonalLoop=1;jettySize=auto;html=1;exitX=1;exitY=0.5;exitDx=0;exitDy=0;" edge="1" parent="1" source="boK0VUZgdgZWPOv1TJlZ-73" target="boK0VUZgdgZWPOv1TJlZ-97">
          <mxGeometry relative="1" as="geometry" />
        </mxCell>
        <mxCell id="boK0VUZgdgZWPOv1TJlZ-73" value="&lt;font style=&quot;font-size: 14px;&quot;&gt;taishan-learner&lt;/font&gt;" style="rounded=0;whiteSpace=wrap;html=1;fillColor=#cdeb8b;strokeColor=#36393d;" vertex="1" parent="1">
          <mxGeometry x="495.5" y="576" width="100" height="35" as="geometry" />
        </mxCell>
        <mxCell id="boK0VUZgdgZWPOv1TJlZ-84" style="edgeStyle=orthogonalEdgeStyle;rounded=0;orthogonalLoop=1;jettySize=auto;html=1;exitX=0.5;exitY=1;exitDx=0;exitDy=0;entryX=0.5;entryY=0;entryDx=0;entryDy=0;" edge="1" parent="1" source="boK0VUZgdgZWPOv1TJlZ-77" target="boK0VUZgdgZWPOv1TJlZ-73">
          <mxGeometry relative="1" as="geometry" />
        </mxCell>
        <mxCell id="boK0VUZgdgZWPOv1TJlZ-77" value="&lt;font style=&quot;font-size: 14px;&quot;&gt;taishan&lt;/font&gt;" style="rounded=0;whiteSpace=wrap;html=1;fillColor=#cdeb8b;strokeColor=#36393d;" vertex="1" parent="1">
          <mxGeometry x="495.5" y="467" width="100" height="48" as="geometry" />
        </mxCell>
        <mxCell id="boK0VUZgdgZWPOv1TJlZ-83" style="edgeStyle=orthogonalEdgeStyle;rounded=0;orthogonalLoop=1;jettySize=auto;html=1;exitX=0.5;exitY=1;exitDx=0;exitDy=0;entryX=0.5;entryY=0;entryDx=0;entryDy=0;" edge="1" parent="1" source="boK0VUZgdgZWPOv1TJlZ-78" target="boK0VUZgdgZWPOv1TJlZ-66">
          <mxGeometry relative="1" as="geometry" />
        </mxCell>
        <mxCell id="boK0VUZgdgZWPOv1TJlZ-78" value="&lt;font style=&quot;font-size: 14px;&quot;&gt;taishan&lt;/font&gt;" style="rounded=0;whiteSpace=wrap;html=1;fillColor=#cdeb8b;strokeColor=#36393d;" vertex="1" parent="1">
          <mxGeometry x="220" y="467" width="100" height="49" as="geometry" />
        </mxCell>
        <mxCell id="boK0VUZgdgZWPOv1TJlZ-80" value="" style="endArrow=classic;html=1;rounded=0;exitX=0.5;exitY=1;exitDx=0;exitDy=0;entryX=0.5;entryY=0;entryDx=0;entryDy=0;strokeWidth=3;" edge="1" parent="1" source="boK0VUZgdgZWPOv1TJlZ-1" target="boK0VUZgdgZWPOv1TJlZ-78">
          <mxGeometry width="50" height="50" relative="1" as="geometry">
            <mxPoint x="501" y="572" as="sourcePoint" />
            <mxPoint x="551" y="522" as="targetPoint" />
          </mxGeometry>
        </mxCell>
        <mxCell id="boK0VUZgdgZWPOv1TJlZ-103" value="读写请求" style="edgeLabel;html=1;align=center;verticalAlign=middle;resizable=0;points=[];" vertex="1" connectable="0" parent="boK0VUZgdgZWPOv1TJlZ-80">
          <mxGeometry x="-0.1385" y="-2" relative="1" as="geometry">
            <mxPoint as="offset" />
          </mxGeometry>
        </mxCell>
        <mxCell id="boK0VUZgdgZWPOv1TJlZ-81" value="" style="endArrow=classic;html=1;rounded=0;exitX=0.5;exitY=1;exitDx=0;exitDy=0;entryX=0.5;entryY=0;entryDx=0;entryDy=0;strokeWidth=3;" edge="1" parent="1" source="boK0VUZgdgZWPOv1TJlZ-68" target="boK0VUZgdgZWPOv1TJlZ-78">
          <mxGeometry width="50" height="50" relative="1" as="geometry">
            <mxPoint x="366" y="627" as="sourcePoint" />
            <mxPoint x="416" y="577" as="targetPoint" />
          </mxGeometry>
        </mxCell>
        <mxCell id="boK0VUZgdgZWPOv1TJlZ-104" value="写请求" style="edgeLabel;html=1;align=center;verticalAlign=middle;resizable=0;points=[];" vertex="1" connectable="0" parent="boK0VUZgdgZWPOv1TJlZ-81">
          <mxGeometry x="0.0781" y="2" relative="1" as="geometry">
            <mxPoint as="offset" />
          </mxGeometry>
        </mxCell>
        <mxCell id="boK0VUZgdgZWPOv1TJlZ-82" value="" style="endArrow=classic;html=1;rounded=0;strokeWidth=3;" edge="1" parent="1" target="boK0VUZgdgZWPOv1TJlZ-77">
          <mxGeometry width="50" height="50" relative="1" as="geometry">
            <mxPoint x="544" y="400" as="sourcePoint" />
            <mxPoint x="451" y="522" as="targetPoint" />
          </mxGeometry>
        </mxCell>
        <mxCell id="boK0VUZgdgZWPOv1TJlZ-105" value="读请求" style="edgeLabel;html=1;align=center;verticalAlign=middle;resizable=0;points=[];" vertex="1" connectable="0" parent="boK0VUZgdgZWPOv1TJlZ-82">
          <mxGeometry x="-0.0445" y="1" relative="1" as="geometry">
            <mxPoint as="offset" />
          </mxGeometry>
        </mxCell>
        <mxCell id="boK0VUZgdgZWPOv1TJlZ-86" style="edgeStyle=orthogonalEdgeStyle;rounded=0;orthogonalLoop=1;jettySize=auto;html=1;exitX=1;exitY=0.5;exitDx=0;exitDy=0;entryX=0;entryY=0.5;entryDx=0;entryDy=0;strokeWidth=3;" edge="1" parent="1" source="boK0VUZgdgZWPOv1TJlZ-85" target="boK0VUZgdgZWPOv1TJlZ-68">
          <mxGeometry relative="1" as="geometry" />
        </mxCell>
        <mxCell id="boK0VUZgdgZWPOv1TJlZ-87" style="edgeStyle=orthogonalEdgeStyle;rounded=0;orthogonalLoop=1;jettySize=auto;html=1;exitX=0;exitY=0.5;exitDx=0;exitDy=0;entryX=1;entryY=0.5;entryDx=0;entryDy=0;" edge="1" parent="1" target="boK0VUZgdgZWPOv1TJlZ-1">
          <mxGeometry relative="1" as="geometry">
            <mxPoint x="377" y="384.5" as="sourcePoint" />
          </mxGeometry>
        </mxCell>
        <mxCell id="boK0VUZgdgZWPOv1TJlZ-108" value="" style="edgeStyle=orthogonalEdgeStyle;rounded=0;orthogonalLoop=1;jettySize=auto;html=1;strokeWidth=3;" edge="1" parent="1" source="boK0VUZgdgZWPOv1TJlZ-85" target="boK0VUZgdgZWPOv1TJlZ-1">
          <mxGeometry relative="1" as="geometry" />
        </mxCell>
        <mxCell id="boK0VUZgdgZWPOv1TJlZ-85" value="表路由信息存储" style="rounded=0;whiteSpace=wrap;html=1;fillColor=#cdeb8b;strokeColor=#36393d;strokeWidth=1;" vertex="1" parent="1">
          <mxGeometry x="360" y="361" width="104" height="47" as="geometry" />
        </mxCell>
        <mxCell id="boK0VUZgdgZWPOv1TJlZ-88" style="edgeStyle=orthogonalEdgeStyle;rounded=0;orthogonalLoop=1;jettySize=auto;html=1;exitX=0.5;exitY=1;exitDx=0;exitDy=0;" edge="1" parent="1" source="boK0VUZgdgZWPOv1TJlZ-67" target="boK0VUZgdgZWPOv1TJlZ-67">
          <mxGeometry relative="1" as="geometry" />
        </mxCell>
        <mxCell id="boK0VUZgdgZWPOv1TJlZ-90" value="" style="endArrow=classic;html=1;rounded=0;exitX=1;exitY=0.5;exitDx=0;exitDy=0;entryX=0;entryY=0.5;entryDx=0;entryDy=0;" edge="1" parent="1" source="boK0VUZgdgZWPOv1TJlZ-66" target="boK0VUZgdgZWPOv1TJlZ-77">
          <mxGeometry width="50" height="50" relative="1" as="geometry">
            <mxPoint x="444" y="545" as="sourcePoint" />
            <mxPoint x="494" y="495" as="targetPoint" />
          </mxGeometry>
        </mxCell>
        <mxCell id="boK0VUZgdgZWPOv1TJlZ-91" value="" style="endArrow=classic;html=1;rounded=0;exitX=0;exitY=0.5;exitDx=0;exitDy=0;entryX=1;entryY=0.5;entryDx=0;entryDy=0;" edge="1" parent="1" source="boK0VUZgdgZWPOv1TJlZ-73" target="boK0VUZgdgZWPOv1TJlZ-78">
          <mxGeometry width="50" height="50" relative="1" as="geometry">
            <mxPoint x="444" y="545" as="sourcePoint" />
            <mxPoint x="494" y="495" as="targetPoint" />
          </mxGeometry>
        </mxCell>
        <mxCell id="boK0VUZgdgZWPOv1TJlZ-101" style="edgeStyle=orthogonalEdgeStyle;rounded=0;orthogonalLoop=1;jettySize=auto;html=1;exitX=0.5;exitY=0;exitDx=0;exitDy=0;" edge="1" parent="1" source="boK0VUZgdgZWPOv1TJlZ-95" target="boK0VUZgdgZWPOv1TJlZ-99">
          <mxGeometry relative="1" as="geometry" />
        </mxCell>
        <mxCell id="boK0VUZgdgZWPOv1TJlZ-95" value="&lt;span style=&quot;font-size: 14px;&quot;&gt;Databus&lt;/span&gt;" style="rounded=0;whiteSpace=wrap;html=1;fillColor=#ffff88;strokeColor=#36393d;" vertex="1" parent="1">
          <mxGeometry x="81" y="579" width="100" height="35" as="geometry" />
        </mxCell>
        <mxCell id="boK0VUZgdgZWPOv1TJlZ-102" style="edgeStyle=orthogonalEdgeStyle;rounded=0;orthogonalLoop=1;jettySize=auto;html=1;exitX=0.5;exitY=0;exitDx=0;exitDy=0;entryX=0.5;entryY=1;entryDx=0;entryDy=0;" edge="1" parent="1" source="boK0VUZgdgZWPOv1TJlZ-97" target="boK0VUZgdgZWPOv1TJlZ-100">
          <mxGeometry relative="1" as="geometry" />
        </mxCell>
        <mxCell id="boK0VUZgdgZWPOv1TJlZ-97" value="&lt;span style=&quot;font-size: 14px;&quot;&gt;Databus&lt;/span&gt;" style="rounded=0;whiteSpace=wrap;html=1;fillColor=#ffff88;strokeColor=#36393d;" vertex="1" parent="1">
          <mxGeometry x="634" y="576" width="100" height="35" as="geometry" />
        </mxCell>
        <mxCell id="boK0VUZgdgZWPOv1TJlZ-99" value="&lt;font style=&quot;font-size: 14px;&quot;&gt;业务应&lt;/font&gt;用" style="rounded=0;whiteSpace=wrap;html=1;fillColor=#cce5ff;strokeColor=#36393d;" vertex="1" parent="1">
          <mxGeometry x="81" y="300" width="100" height="33" as="geometry" />
        </mxCell>
        <mxCell id="boK0VUZgdgZWPOv1TJlZ-100" value="&lt;font style=&quot;font-size: 14px;&quot;&gt;业务应&lt;/font&gt;用" style="rounded=0;whiteSpace=wrap;html=1;fillColor=#cce5ff;strokeColor=#36393d;" vertex="1" parent="1">
          <mxGeometry x="634" y="300" width="100" height="33" as="geometry" />
        </mxCell>
        <mxCell id="boK0VUZgdgZWPOv1TJlZ-107" style="edgeStyle=orthogonalEdgeStyle;rounded=0;orthogonalLoop=1;jettySize=auto;html=1;exitX=0.5;exitY=1;exitDx=0;exitDy=0;entryX=0.5;entryY=0;entryDx=0;entryDy=0;" edge="1" parent="1" source="boK0VUZgdgZWPOv1TJlZ-106" target="boK0VUZgdgZWPOv1TJlZ-85">
          <mxGeometry relative="1" as="geometry" />
        </mxCell>
        <mxCell id="boK0VUZgdgZWPOv1TJlZ-106" value="taishan&lt;div&gt;运维管理平台&lt;/div&gt;" style="rounded=0;whiteSpace=wrap;html=1;fillColor=#cdeb8b;strokeColor=#36393d;" vertex="1" parent="1">
          <mxGeometry x="362" y="277" width="104" height="47" as="geometry" />
        </mxCell>
        <mxCell id="boK0VUZgdgZWPOv1TJlZ-109" value="" style="rounded=0;whiteSpace=wrap;html=1;dashed=1;" vertex="1" parent="1">
          <mxGeometry x="348.5" y="665.5" width="182" height="67" as="geometry" />
        </mxCell>
        <mxCell id="boK0VUZgdgZWPOv1TJlZ-112" value="taishan-node" style="rounded=0;whiteSpace=wrap;html=1;fillColor=#cdeb8b;strokeColor=#36393d;" vertex="1" parent="1">
          <mxGeometry x="358" y="681" width="75" height="36" as="geometry" />
        </mxCell>
        <mxCell id="boK0VUZgdgZWPOv1TJlZ-113" style="edgeStyle=orthogonalEdgeStyle;rounded=0;orthogonalLoop=1;jettySize=auto;html=1;exitX=0.5;exitY=1;exitDx=0;exitDy=0;" edge="1" parent="1" source="boK0VUZgdgZWPOv1TJlZ-112" target="boK0VUZgdgZWPOv1TJlZ-112">
          <mxGeometry relative="1" as="geometry" />
        </mxCell>
        <mxCell id="boK0VUZgdgZWPOv1TJlZ-114" value="taishan-node" style="rounded=0;whiteSpace=wrap;html=1;fillColor=#cdeb8b;strokeColor=#36393d;" vertex="1" parent="1">
          <mxGeometry x="446" y="681" width="75" height="36" as="geometry" />
        </mxCell>
        <mxCell id="boK0VUZgdgZWPOv1TJlZ-115" value="" style="rounded=0;whiteSpace=wrap;html=1;dashed=1;" vertex="1" parent="1">
          <mxGeometry x="348.5" y="747.5" width="182" height="67" as="geometry" />
        </mxCell>
        <mxCell id="boK0VUZgdgZWPOv1TJlZ-116" value="taishan-node" style="rounded=0;whiteSpace=wrap;html=1;fillColor=#cdeb8b;strokeColor=#36393d;" vertex="1" parent="1">
          <mxGeometry x="358" y="763" width="75" height="36" as="geometry" />
        </mxCell>
        <mxCell id="boK0VUZgdgZWPOv1TJlZ-117" style="edgeStyle=orthogonalEdgeStyle;rounded=0;orthogonalLoop=1;jettySize=auto;html=1;exitX=0.5;exitY=1;exitDx=0;exitDy=0;" edge="1" parent="1" source="boK0VUZgdgZWPOv1TJlZ-116" target="boK0VUZgdgZWPOv1TJlZ-116">
          <mxGeometry relative="1" as="geometry" />
        </mxCell>
        <mxCell id="boK0VUZgdgZWPOv1TJlZ-118" value="taishan-node" style="rounded=0;whiteSpace=wrap;html=1;fillColor=#cdeb8b;strokeColor=#36393d;" vertex="1" parent="1">
          <mxGeometry x="446" y="763" width="75" height="36" as="geometry" />
        </mxCell>
        <mxCell id="boK0VUZgdgZWPOv1TJlZ-119" value="" style="rounded=0;whiteSpace=wrap;html=1;dashed=1;" vertex="1" parent="1">
          <mxGeometry x="348.5" y="829.5" width="182" height="67" as="geometry" />
        </mxCell>
        <mxCell id="boK0VUZgdgZWPOv1TJlZ-120" value="taishan-node" style="rounded=0;whiteSpace=wrap;html=1;fillColor=#cdeb8b;strokeColor=#36393d;" vertex="1" parent="1">
          <mxGeometry x="402" y="844" width="75" height="36" as="geometry" />
        </mxCell>
        <mxCell id="boK0VUZgdgZWPOv1TJlZ-121" style="edgeStyle=orthogonalEdgeStyle;rounded=0;orthogonalLoop=1;jettySize=auto;html=1;exitX=0.5;exitY=1;exitDx=0;exitDy=0;" edge="1" parent="1" source="boK0VUZgdgZWPOv1TJlZ-120" target="boK0VUZgdgZWPOv1TJlZ-120">
          <mxGeometry relative="1" as="geometry" />
        </mxCell>
        <mxCell id="boK0VUZgdgZWPOv1TJlZ-123" value="&lt;span style=&quot;font-weight: normal;&quot;&gt;&lt;font style=&quot;font-size: 14px;&quot;&gt;sh001&lt;/font&gt;&lt;/span&gt;" style="text;strokeColor=none;fillColor=none;html=1;fontSize=24;fontStyle=1;verticalAlign=middle;align=center;" vertex="1" parent="1">
          <mxGeometry x="286.5" y="683" width="74" height="34" as="geometry" />
        </mxCell>
        <mxCell id="boK0VUZgdgZWPOv1TJlZ-124" value="&lt;span style=&quot;font-weight: normal;&quot;&gt;&lt;font style=&quot;font-size: 14px;&quot;&gt;sh004&lt;/font&gt;&lt;/span&gt;" style="text;strokeColor=none;fillColor=none;html=1;fontSize=24;fontStyle=1;verticalAlign=middle;align=center;" vertex="1" parent="1">
          <mxGeometry x="286.5" y="763" width="74" height="34" as="geometry" />
        </mxCell>
        <mxCell id="boK0VUZgdgZWPOv1TJlZ-125" value="&lt;span style=&quot;font-weight: normal;&quot;&gt;&lt;font style=&quot;font-size: 14px;&quot;&gt;cs001&lt;/font&gt;&lt;/span&gt;" style="text;strokeColor=none;fillColor=none;html=1;fontSize=24;fontStyle=1;verticalAlign=middle;align=center;" vertex="1" parent="1">
          <mxGeometry x="286.5" y="840.5" width="74" height="34" as="geometry" />
        </mxCell>
        <mxCell id="boK0VUZgdgZWPOv1TJlZ-207" value="" style="rounded=0;whiteSpace=wrap;html=1;dashed=1;" vertex="1" parent="1">
          <mxGeometry x="258" y="1383" width="135.5" height="250" as="geometry" />
        </mxCell>
        <mxCell id="boK0VUZgdgZWPOv1TJlZ-208" value="&lt;font style=&quot;font-size: 14px;&quot;&gt;taishan proxy&lt;/font&gt;" style="rounded=0;whiteSpace=wrap;html=1;fillColor=#cdeb8b;strokeColor=#36393d;strokeWidth=1;" vertex="1" parent="1">
          <mxGeometry x="274" y="1481" width="100" height="35" as="geometry" />
        </mxCell>
        <mxCell id="boK0VUZgdgZWPOv1TJlZ-209" style="edgeStyle=orthogonalEdgeStyle;rounded=0;orthogonalLoop=1;jettySize=auto;html=1;exitX=0.5;exitY=1;exitDx=0;exitDy=0;entryX=0.5;entryY=0;entryDx=0;entryDy=0;" edge="1" parent="1" source="boK0VUZgdgZWPOv1TJlZ-210" target="boK0VUZgdgZWPOv1TJlZ-208">
          <mxGeometry relative="1" as="geometry" />
        </mxCell>
        <mxCell id="boK0VUZgdgZWPOv1TJlZ-253" value="读写table_1" style="edgeLabel;html=1;align=center;verticalAlign=middle;resizable=0;points=[];" vertex="1" connectable="0" parent="boK0VUZgdgZWPOv1TJlZ-209">
          <mxGeometry x="-0.2353" relative="1" as="geometry">
            <mxPoint as="offset" />
          </mxGeometry>
        </mxCell>
        <mxCell id="boK0VUZgdgZWPOv1TJlZ-210" value="&lt;font style=&quot;font-size: 14px;&quot;&gt;业务应&lt;/font&gt;用" style="rounded=0;whiteSpace=wrap;html=1;fillColor=#cce5ff;strokeColor=#36393d;" vertex="1" parent="1">
          <mxGeometry x="274" y="1404" width="100" height="33" as="geometry" />
        </mxCell>
        <mxCell id="boK0VUZgdgZWPOv1TJlZ-211" value="&lt;span style=&quot;font-weight: normal;&quot;&gt;&lt;font style=&quot;font-size: 18px;&quot;&gt;sh001机房&lt;/font&gt;&lt;/span&gt;" style="text;strokeColor=none;fillColor=none;html=1;fontSize=24;fontStyle=1;verticalAlign=middle;align=center;" vertex="1" parent="1">
          <mxGeometry x="282" y="1343" width="100" height="40" as="geometry" />
        </mxCell>
        <mxCell id="boK0VUZgdgZWPOv1TJlZ-215" value="&lt;font style=&quot;font-size: 14px;&quot;&gt;taishan proxy&lt;/font&gt;" style="rounded=0;whiteSpace=wrap;html=1;fillColor=#cdeb8b;strokeColor=#36393d;strokeWidth=1;" vertex="1" parent="1">
          <mxGeometry x="489.5" y="1481" width="100" height="35" as="geometry" />
        </mxCell>
        <mxCell id="boK0VUZgdgZWPOv1TJlZ-216" style="edgeStyle=orthogonalEdgeStyle;rounded=0;orthogonalLoop=1;jettySize=auto;html=1;exitX=0.5;exitY=1;exitDx=0;exitDy=0;entryX=0.5;entryY=0;entryDx=0;entryDy=0;" edge="1" parent="1" source="boK0VUZgdgZWPOv1TJlZ-217" target="boK0VUZgdgZWPOv1TJlZ-215">
          <mxGeometry relative="1" as="geometry" />
        </mxCell>
        <mxCell id="boK0VUZgdgZWPOv1TJlZ-254" value="读写table_1" style="edgeLabel;html=1;align=center;verticalAlign=middle;resizable=0;points=[];" vertex="1" connectable="0" parent="boK0VUZgdgZWPOv1TJlZ-216">
          <mxGeometry x="-0.0286" y="1" relative="1" as="geometry">
            <mxPoint as="offset" />
          </mxGeometry>
        </mxCell>
        <mxCell id="boK0VUZgdgZWPOv1TJlZ-217" value="&lt;font style=&quot;font-size: 14px;&quot;&gt;业务应&lt;/font&gt;用" style="rounded=0;whiteSpace=wrap;html=1;fillColor=#cce5ff;strokeColor=#36393d;" vertex="1" parent="1">
          <mxGeometry x="490.5" y="1404" width="100" height="33" as="geometry" />
        </mxCell>
        <mxCell id="boK0VUZgdgZWPOv1TJlZ-222" value="" style="rounded=0;whiteSpace=wrap;html=1;fillColor=#cdeb8b;strokeColor=#36393d;" vertex="1" parent="1">
          <mxGeometry x="490.5" y="1571" width="100" height="48" as="geometry" />
        </mxCell>
        <mxCell id="boK0VUZgdgZWPOv1TJlZ-224" value="&lt;span style=&quot;font-size: 14px;&quot;&gt;table_1&lt;/span&gt;" style="rounded=0;whiteSpace=wrap;html=1;fillColor=#cdeb8b;strokeColor=#36393d;" vertex="1" parent="1">
          <mxGeometry x="274" y="1571" width="100" height="49" as="geometry" />
        </mxCell>
        <mxCell id="boK0VUZgdgZWPOv1TJlZ-225" value="" style="endArrow=classic;html=1;rounded=0;exitX=0.5;exitY=1;exitDx=0;exitDy=0;entryX=0.5;entryY=0;entryDx=0;entryDy=0;strokeWidth=1;" edge="1" parent="1" source="boK0VUZgdgZWPOv1TJlZ-208" target="boK0VUZgdgZWPOv1TJlZ-224">
          <mxGeometry width="50" height="50" relative="1" as="geometry">
            <mxPoint x="555" y="1676" as="sourcePoint" />
            <mxPoint x="605" y="1626" as="targetPoint" />
          </mxGeometry>
        </mxCell>
        <mxCell id="boK0VUZgdgZWPOv1TJlZ-226" value="读写table_1" style="edgeLabel;html=1;align=center;verticalAlign=middle;resizable=0;points=[];" vertex="1" connectable="0" parent="boK0VUZgdgZWPOv1TJlZ-225">
          <mxGeometry x="-0.1385" y="-2" relative="1" as="geometry">
            <mxPoint as="offset" />
          </mxGeometry>
        </mxCell>
        <mxCell id="boK0VUZgdgZWPOv1TJlZ-227" value="" style="endArrow=classic;html=1;rounded=0;exitX=0.5;exitY=1;exitDx=0;exitDy=0;entryX=0.5;entryY=0;entryDx=0;entryDy=0;strokeWidth=1;" edge="1" parent="1" source="boK0VUZgdgZWPOv1TJlZ-215" target="boK0VUZgdgZWPOv1TJlZ-224">
          <mxGeometry width="50" height="50" relative="1" as="geometry">
            <mxPoint x="420" y="1731" as="sourcePoint" />
            <mxPoint x="470" y="1681" as="targetPoint" />
          </mxGeometry>
        </mxCell>
        <mxCell id="boK0VUZgdgZWPOv1TJlZ-228" value="读写table_1" style="edgeLabel;html=1;align=center;verticalAlign=middle;resizable=0;points=[];" vertex="1" connectable="0" parent="boK0VUZgdgZWPOv1TJlZ-227">
          <mxGeometry x="0.0781" y="2" relative="1" as="geometry">
            <mxPoint as="offset" />
          </mxGeometry>
        </mxCell>
        <mxCell id="boK0VUZgdgZWPOv1TJlZ-235" style="edgeStyle=orthogonalEdgeStyle;rounded=0;orthogonalLoop=1;jettySize=auto;html=1;exitX=0.5;exitY=1;exitDx=0;exitDy=0;" edge="1" parent="1">
          <mxGeometry relative="1" as="geometry">
            <mxPoint x="641.5" y="1371" as="sourcePoint" />
            <mxPoint x="641.5" y="1371" as="targetPoint" />
          </mxGeometry>
        </mxCell>
        <mxCell id="boK0VUZgdgZWPOv1TJlZ-252" value="&lt;span style=&quot;font-weight: normal;&quot;&gt;&lt;font style=&quot;font-size: 18px;&quot;&gt;sh004机房&lt;/font&gt;&lt;/span&gt;" style="text;strokeColor=none;fillColor=none;html=1;fontSize=24;fontStyle=1;verticalAlign=middle;align=center;" vertex="1" parent="1">
          <mxGeometry x="482.25" y="1339" width="100" height="40" as="geometry" />
        </mxCell>
        <mxCell id="boK0VUZgdgZWPOv1TJlZ-255" value="&lt;font style=&quot;font-size: 14px; font-weight: normal;&quot;&gt;taishan&lt;/font&gt;" style="text;strokeColor=none;fillColor=none;html=1;fontSize=24;fontStyle=1;verticalAlign=middle;align=center;" vertex="1" parent="1">
          <mxGeometry x="267" y="1553" width="46" height="16" as="geometry" />
        </mxCell>
        <mxCell id="boK0VUZgdgZWPOv1TJlZ-257" value="&lt;font style=&quot;font-size: 14px; font-weight: normal;&quot;&gt;taishan&lt;/font&gt;" style="text;strokeColor=none;fillColor=none;html=1;fontSize=24;fontStyle=1;verticalAlign=middle;align=center;" vertex="1" parent="1">
          <mxGeometry x="489.5" y="1552" width="46" height="16" as="geometry" />
        </mxCell>
        <mxCell id="boK0VUZgdgZWPOv1TJlZ-259" value="" style="rounded=0;whiteSpace=wrap;html=1;dashed=1;" vertex="1" parent="1">
          <mxGeometry x="59" y="1804" width="280.5" height="350" as="geometry" />
        </mxCell>
        <mxCell id="boK0VUZgdgZWPOv1TJlZ-260" value="&lt;font style=&quot;font-size: 14px;&quot;&gt;taishan proxy&lt;/font&gt;" style="rounded=0;whiteSpace=wrap;html=1;fillColor=#cdeb8b;strokeColor=#36393d;strokeWidth=1;" vertex="1" parent="1">
          <mxGeometry x="220" y="1892" width="100" height="35" as="geometry" />
        </mxCell>
        <mxCell id="boK0VUZgdgZWPOv1TJlZ-261" style="edgeStyle=orthogonalEdgeStyle;rounded=0;orthogonalLoop=1;jettySize=auto;html=1;exitX=0.5;exitY=1;exitDx=0;exitDy=0;entryX=0.5;entryY=0;entryDx=0;entryDy=0;" edge="1" parent="1" source="boK0VUZgdgZWPOv1TJlZ-262" target="boK0VUZgdgZWPOv1TJlZ-260">
          <mxGeometry relative="1" as="geometry" />
        </mxCell>
        <mxCell id="boK0VUZgdgZWPOv1TJlZ-262" value="&lt;font style=&quot;font-size: 14px;&quot;&gt;业务应&lt;/font&gt;用" style="rounded=0;whiteSpace=wrap;html=1;fillColor=#cce5ff;strokeColor=#36393d;" vertex="1" parent="1">
          <mxGeometry x="220" y="1825" width="100" height="33" as="geometry" />
        </mxCell>
        <mxCell id="boK0VUZgdgZWPOv1TJlZ-263" value="&lt;span style=&quot;font-weight: normal;&quot;&gt;&lt;font style=&quot;font-size: 18px;&quot;&gt;sh001机房&lt;/font&gt;&lt;/span&gt;" style="text;strokeColor=none;fillColor=none;html=1;fontSize=24;fontStyle=1;verticalAlign=middle;align=center;" vertex="1" parent="1">
          <mxGeometry x="59" y="1764" width="100" height="40" as="geometry" />
        </mxCell>
        <mxCell id="boK0VUZgdgZWPOv1TJlZ-264" style="edgeStyle=orthogonalEdgeStyle;rounded=0;orthogonalLoop=1;jettySize=auto;html=1;exitX=0;exitY=0.5;exitDx=0;exitDy=0;entryX=1;entryY=0.5;entryDx=0;entryDy=0;strokeWidth=3;" edge="1" parent="1" source="boK0VUZgdgZWPOv1TJlZ-265" target="boK0VUZgdgZWPOv1TJlZ-291">
          <mxGeometry relative="1" as="geometry" />
        </mxCell>
        <mxCell id="boK0VUZgdgZWPOv1TJlZ-265" value="&lt;font style=&quot;font-size: 14px;&quot;&gt;taishan-learner&lt;/font&gt;" style="rounded=0;whiteSpace=wrap;html=1;fillColor=#cdeb8b;strokeColor=#36393d;strokeWidth=3;" vertex="1" parent="1">
          <mxGeometry x="220" y="2104" width="100" height="35" as="geometry" />
        </mxCell>
        <mxCell id="boK0VUZgdgZWPOv1TJlZ-266" value="" style="rounded=0;whiteSpace=wrap;html=1;dashed=1;" vertex="1" parent="1">
          <mxGeometry x="476" y="1804" width="281" height="350" as="geometry" />
        </mxCell>
        <mxCell id="boK0VUZgdgZWPOv1TJlZ-267" value="&lt;font style=&quot;font-size: 14px;&quot;&gt;taishan proxy&lt;/font&gt;" style="rounded=0;whiteSpace=wrap;html=1;fillColor=#cdeb8b;strokeColor=#36393d;strokeWidth=1;" vertex="1" parent="1">
          <mxGeometry x="494.5" y="1892" width="100" height="35" as="geometry" />
        </mxCell>
        <mxCell id="boK0VUZgdgZWPOv1TJlZ-268" style="edgeStyle=orthogonalEdgeStyle;rounded=0;orthogonalLoop=1;jettySize=auto;html=1;exitX=0.5;exitY=1;exitDx=0;exitDy=0;entryX=0.5;entryY=0;entryDx=0;entryDy=0;" edge="1" parent="1" source="boK0VUZgdgZWPOv1TJlZ-269" target="boK0VUZgdgZWPOv1TJlZ-267">
          <mxGeometry relative="1" as="geometry" />
        </mxCell>
        <mxCell id="boK0VUZgdgZWPOv1TJlZ-269" value="&lt;font style=&quot;font-size: 14px;&quot;&gt;业务应&lt;/font&gt;用" style="rounded=0;whiteSpace=wrap;html=1;fillColor=#cce5ff;strokeColor=#36393d;" vertex="1" parent="1">
          <mxGeometry x="495.5" y="1825" width="100" height="33" as="geometry" />
        </mxCell>
        <mxCell id="boK0VUZgdgZWPOv1TJlZ-270" value="&lt;span style=&quot;font-weight: normal;&quot;&gt;&lt;font style=&quot;font-size: 18px;&quot;&gt;sh004机房&lt;/font&gt;&lt;/span&gt;" style="text;strokeColor=none;fillColor=none;html=1;fontSize=24;fontStyle=1;verticalAlign=middle;align=center;" vertex="1" parent="1">
          <mxGeometry x="657" y="1764" width="100" height="40" as="geometry" />
        </mxCell>
        <mxCell id="boK0VUZgdgZWPOv1TJlZ-271" style="edgeStyle=orthogonalEdgeStyle;rounded=0;orthogonalLoop=1;jettySize=auto;html=1;exitX=1;exitY=0.5;exitDx=0;exitDy=0;strokeWidth=3;" edge="1" parent="1" source="boK0VUZgdgZWPOv1TJlZ-272" target="boK0VUZgdgZWPOv1TJlZ-293">
          <mxGeometry relative="1" as="geometry" />
        </mxCell>
        <mxCell id="boK0VUZgdgZWPOv1TJlZ-272" value="&lt;font style=&quot;font-size: 14px;&quot;&gt;taishan-learner&lt;/font&gt;" style="rounded=0;whiteSpace=wrap;html=1;fillColor=#cdeb8b;strokeColor=#36393d;strokeWidth=3;" vertex="1" parent="1">
          <mxGeometry x="495.5" y="2101" width="100" height="35" as="geometry" />
        </mxCell>
        <mxCell id="boK0VUZgdgZWPOv1TJlZ-273" style="edgeStyle=orthogonalEdgeStyle;rounded=0;orthogonalLoop=1;jettySize=auto;html=1;exitX=0.5;exitY=1;exitDx=0;exitDy=0;entryX=0.5;entryY=0;entryDx=0;entryDy=0;strokeWidth=3;" edge="1" parent="1" source="boK0VUZgdgZWPOv1TJlZ-274" target="boK0VUZgdgZWPOv1TJlZ-272">
          <mxGeometry relative="1" as="geometry" />
        </mxCell>
        <mxCell id="boK0VUZgdgZWPOv1TJlZ-274" value="&lt;font style=&quot;font-size: 14px;&quot;&gt;taishan&lt;/font&gt;" style="rounded=0;whiteSpace=wrap;html=1;fillColor=#cdeb8b;strokeColor=#36393d;" vertex="1" parent="1">
          <mxGeometry x="495.5" y="1992" width="100" height="48" as="geometry" />
        </mxCell>
        <mxCell id="boK0VUZgdgZWPOv1TJlZ-275" style="edgeStyle=orthogonalEdgeStyle;rounded=0;orthogonalLoop=1;jettySize=auto;html=1;exitX=0.5;exitY=1;exitDx=0;exitDy=0;entryX=0.5;entryY=0;entryDx=0;entryDy=0;strokeWidth=3;" edge="1" parent="1" source="boK0VUZgdgZWPOv1TJlZ-276" target="boK0VUZgdgZWPOv1TJlZ-265">
          <mxGeometry relative="1" as="geometry" />
        </mxCell>
        <mxCell id="boK0VUZgdgZWPOv1TJlZ-276" value="&lt;font style=&quot;font-size: 14px;&quot;&gt;taishan&lt;/font&gt;" style="rounded=0;whiteSpace=wrap;html=1;fillColor=#cdeb8b;strokeColor=#36393d;" vertex="1" parent="1">
          <mxGeometry x="220" y="1992" width="100" height="49" as="geometry" />
        </mxCell>
        <mxCell id="boK0VUZgdgZWPOv1TJlZ-277" value="" style="endArrow=classic;html=1;rounded=0;exitX=0.5;exitY=1;exitDx=0;exitDy=0;entryX=0.5;entryY=0;entryDx=0;entryDy=0;strokeWidth=1;" edge="1" parent="1" source="boK0VUZgdgZWPOv1TJlZ-260" target="boK0VUZgdgZWPOv1TJlZ-276">
          <mxGeometry width="50" height="50" relative="1" as="geometry">
            <mxPoint x="501" y="2097" as="sourcePoint" />
            <mxPoint x="551" y="2047" as="targetPoint" />
          </mxGeometry>
        </mxCell>
        <mxCell id="boK0VUZgdgZWPOv1TJlZ-278" value="读写请求" style="edgeLabel;html=1;align=center;verticalAlign=middle;resizable=0;points=[];" vertex="1" connectable="0" parent="boK0VUZgdgZWPOv1TJlZ-277">
          <mxGeometry x="-0.1385" y="-2" relative="1" as="geometry">
            <mxPoint as="offset" />
          </mxGeometry>
        </mxCell>
        <mxCell id="boK0VUZgdgZWPOv1TJlZ-279" value="" style="endArrow=classic;html=1;rounded=0;exitX=0.5;exitY=1;exitDx=0;exitDy=0;entryX=0.5;entryY=0;entryDx=0;entryDy=0;strokeWidth=1;" edge="1" parent="1" source="boK0VUZgdgZWPOv1TJlZ-267" target="boK0VUZgdgZWPOv1TJlZ-276">
          <mxGeometry width="50" height="50" relative="1" as="geometry">
            <mxPoint x="366" y="2152" as="sourcePoint" />
            <mxPoint x="416" y="2102" as="targetPoint" />
          </mxGeometry>
        </mxCell>
        <mxCell id="boK0VUZgdgZWPOv1TJlZ-280" value="写请求" style="edgeLabel;html=1;align=center;verticalAlign=middle;resizable=0;points=[];" vertex="1" connectable="0" parent="boK0VUZgdgZWPOv1TJlZ-279">
          <mxGeometry x="0.0781" y="2" relative="1" as="geometry">
            <mxPoint as="offset" />
          </mxGeometry>
        </mxCell>
        <mxCell id="boK0VUZgdgZWPOv1TJlZ-281" value="" style="endArrow=classic;html=1;rounded=0;strokeWidth=1;" edge="1" parent="1" target="boK0VUZgdgZWPOv1TJlZ-274">
          <mxGeometry width="50" height="50" relative="1" as="geometry">
            <mxPoint x="544" y="1925" as="sourcePoint" />
            <mxPoint x="451" y="2047" as="targetPoint" />
          </mxGeometry>
        </mxCell>
        <mxCell id="boK0VUZgdgZWPOv1TJlZ-282" value="读请求" style="edgeLabel;html=1;align=center;verticalAlign=middle;resizable=0;points=[];" vertex="1" connectable="0" parent="boK0VUZgdgZWPOv1TJlZ-281">
          <mxGeometry x="-0.0445" y="1" relative="1" as="geometry">
            <mxPoint as="offset" />
          </mxGeometry>
        </mxCell>
        <mxCell id="boK0VUZgdgZWPOv1TJlZ-283" style="edgeStyle=orthogonalEdgeStyle;rounded=0;orthogonalLoop=1;jettySize=auto;html=1;exitX=1;exitY=0.5;exitDx=0;exitDy=0;entryX=0;entryY=0.5;entryDx=0;entryDy=0;strokeWidth=1;" edge="1" parent="1" source="boK0VUZgdgZWPOv1TJlZ-286" target="boK0VUZgdgZWPOv1TJlZ-267">
          <mxGeometry relative="1" as="geometry" />
        </mxCell>
        <mxCell id="boK0VUZgdgZWPOv1TJlZ-284" style="edgeStyle=orthogonalEdgeStyle;rounded=0;orthogonalLoop=1;jettySize=auto;html=1;exitX=0;exitY=0.5;exitDx=0;exitDy=0;entryX=1;entryY=0.5;entryDx=0;entryDy=0;" edge="1" parent="1" target="boK0VUZgdgZWPOv1TJlZ-260">
          <mxGeometry relative="1" as="geometry">
            <mxPoint x="377" y="1909.5" as="sourcePoint" />
          </mxGeometry>
        </mxCell>
        <mxCell id="boK0VUZgdgZWPOv1TJlZ-285" value="" style="edgeStyle=orthogonalEdgeStyle;rounded=0;orthogonalLoop=1;jettySize=auto;html=1;strokeWidth=1;" edge="1" parent="1" source="boK0VUZgdgZWPOv1TJlZ-286" target="boK0VUZgdgZWPOv1TJlZ-260">
          <mxGeometry relative="1" as="geometry" />
        </mxCell>
        <mxCell id="boK0VUZgdgZWPOv1TJlZ-286" value="表路由信息存储" style="rounded=0;whiteSpace=wrap;html=1;fillColor=#cdeb8b;strokeColor=#36393d;strokeWidth=1;" vertex="1" parent="1">
          <mxGeometry x="360" y="1886" width="104" height="47" as="geometry" />
        </mxCell>
        <mxCell id="boK0VUZgdgZWPOv1TJlZ-287" style="edgeStyle=orthogonalEdgeStyle;rounded=0;orthogonalLoop=1;jettySize=auto;html=1;exitX=0.5;exitY=1;exitDx=0;exitDy=0;" edge="1" parent="1" source="boK0VUZgdgZWPOv1TJlZ-266" target="boK0VUZgdgZWPOv1TJlZ-266">
          <mxGeometry relative="1" as="geometry" />
        </mxCell>
        <mxCell id="boK0VUZgdgZWPOv1TJlZ-288" value="" style="endArrow=classic;html=1;rounded=0;exitX=1;exitY=0.5;exitDx=0;exitDy=0;entryX=0;entryY=0.5;entryDx=0;entryDy=0;strokeWidth=3;" edge="1" parent="1" source="boK0VUZgdgZWPOv1TJlZ-265" target="boK0VUZgdgZWPOv1TJlZ-274">
          <mxGeometry width="50" height="50" relative="1" as="geometry">
            <mxPoint x="444" y="2070" as="sourcePoint" />
            <mxPoint x="494" y="2020" as="targetPoint" />
          </mxGeometry>
        </mxCell>
        <mxCell id="boK0VUZgdgZWPOv1TJlZ-289" value="" style="endArrow=classic;html=1;rounded=0;exitX=0;exitY=0.5;exitDx=0;exitDy=0;entryX=1;entryY=0.5;entryDx=0;entryDy=0;strokeWidth=3;" edge="1" parent="1" source="boK0VUZgdgZWPOv1TJlZ-272" target="boK0VUZgdgZWPOv1TJlZ-276">
          <mxGeometry width="50" height="50" relative="1" as="geometry">
            <mxPoint x="444" y="2070" as="sourcePoint" />
            <mxPoint x="494" y="2020" as="targetPoint" />
          </mxGeometry>
        </mxCell>
        <mxCell id="boK0VUZgdgZWPOv1TJlZ-301" style="edgeStyle=orthogonalEdgeStyle;rounded=0;orthogonalLoop=1;jettySize=auto;html=1;exitX=0.5;exitY=0;exitDx=0;exitDy=0;entryX=0.5;entryY=1;entryDx=0;entryDy=0;" edge="1" parent="1" source="boK0VUZgdgZWPOv1TJlZ-291" target="boK0VUZgdgZWPOv1TJlZ-294">
          <mxGeometry relative="1" as="geometry" />
        </mxCell>
        <mxCell id="boK0VUZgdgZWPOv1TJlZ-291" value="&lt;span style=&quot;font-size: 14px;&quot;&gt;Databus&lt;/span&gt;" style="rounded=0;whiteSpace=wrap;html=1;fillColor=#ffff88;strokeColor=#36393d;" vertex="1" parent="1">
          <mxGeometry x="81" y="2104" width="100" height="35" as="geometry" />
        </mxCell>
        <mxCell id="boK0VUZgdgZWPOv1TJlZ-293" value="&lt;span style=&quot;font-size: 14px;&quot;&gt;Databus&lt;/span&gt;" style="rounded=0;whiteSpace=wrap;html=1;fillColor=#ffff88;strokeColor=#36393d;" vertex="1" parent="1">
          <mxGeometry x="634" y="2101" width="100" height="35" as="geometry" />
        </mxCell>
        <mxCell id="boK0VUZgdgZWPOv1TJlZ-294" value="&lt;font style=&quot;font-size: 14px;&quot;&gt;业务应&lt;/font&gt;用" style="rounded=0;whiteSpace=wrap;html=1;fillColor=#cce5ff;strokeColor=#36393d;" vertex="1" parent="1">
          <mxGeometry x="81" y="1825" width="100" height="33" as="geometry" />
        </mxCell>
        <mxCell id="boK0VUZgdgZWPOv1TJlZ-295" value="&lt;font style=&quot;font-size: 14px;&quot;&gt;业务应&lt;/font&gt;用" style="rounded=0;whiteSpace=wrap;html=1;fillColor=#cce5ff;strokeColor=#36393d;" vertex="1" parent="1">
          <mxGeometry x="634" y="1825" width="100" height="33" as="geometry" />
        </mxCell>
        <mxCell id="boK0VUZgdgZWPOv1TJlZ-296" style="edgeStyle=orthogonalEdgeStyle;rounded=0;orthogonalLoop=1;jettySize=auto;html=1;exitX=0.5;exitY=1;exitDx=0;exitDy=0;entryX=0.5;entryY=0;entryDx=0;entryDy=0;" edge="1" parent="1" source="boK0VUZgdgZWPOv1TJlZ-297" target="boK0VUZgdgZWPOv1TJlZ-286">
          <mxGeometry relative="1" as="geometry" />
        </mxCell>
        <mxCell id="boK0VUZgdgZWPOv1TJlZ-297" value="taishan&lt;div&gt;运维管理平台&lt;/div&gt;" style="rounded=0;whiteSpace=wrap;html=1;fillColor=#cdeb8b;strokeColor=#36393d;" vertex="1" parent="1">
          <mxGeometry x="362" y="1802" width="104" height="47" as="geometry" />
        </mxCell>
      </root>
    </mxGraphModel>
  </diagram>
</mxfile>
